<svg xmlns="http://www.w3.org/2000/svg" width="72" height="16" viewBox="0 0 72 16">
    <path d="M41.146 8.426v2.903c.008.602.462 1.096 1.048 1.167l.127.008h.43c.603-.008 1.097-.463 1.166-1.048l.009-.127V8.426h2.496v2.903c-.006 1.96-1.542 3.559-3.476 3.665l-.194.006h-.431c-1.96-.006-3.559-1.542-3.665-3.476l-.006-.195V8.426h2.496zm-3.077-7.084v2.17h-2.125V14.66h-2.57V3.51H31.25V1.342h6.82zm12.364 0c3.215 0 4.532 2.875 4.532 6.67 0 3.833-1.298 6.649-4.512 6.649H47.65V1.342h2.783zm10.088 0l2.776 13.318h-2.576l-.4-2.554h-2.495l-.4 2.554H54.85l2.776-13.318h2.895zM3.559 1.34v11.146H7v2.172H1V1.34h2.56zm7.603 0v13.318H8.6V1.34h2.562zm4.184 0l2.602 7.368V1.34h2.562v13.318h-2.402l-2.762-7.627v7.627H12.76V1.34h2.586zM28 1.34v2.168h-3.452V6.91H27.7v2.173h-3.152v3.402H28v2.174h-6V1.34h6zm36.926 0l1.697 5.371L68.34 1.34h2.657L67.88 9.147v5.511h-2.516v-5.51L62.25 1.34h2.676zM50.453 3.558h-.241v8.886h.24c1.255 0 1.895-1.492 1.936-4.153l.002-.28c0-2.935-.64-4.453-1.937-4.453zm8.63.6l-.958 5.769h1.897l-.939-5.77zM42.752 1c1.959.006 3.558 1.542 3.664 3.476l.006.195v2.904h-2.496V4.671c-.008-.603-.462-1.097-1.047-1.167l-.127-.008h-.431c-.602.008-1.097.462-1.167 1.047l-.008.128v2.904H38.65V4.671c.006-1.96 1.542-3.559 3.476-3.665L42.321 1h.43z"/>
</svg>
